<svg xmlns="http://www.w3.org/2000/svg" viewBox="0 0 21.06 54.88"><g id="Layer_2" data-name="Layer 2"><g id="Layer_1-2" data-name="Layer 1"><path d="M13.43,26.1a6.13,6.13,0,0,0,1.21.28,12.61,12.61,0,0,0,1.41.08h.54l.68,0c0-.05,0-.3,0-.74V23c0-.39,0-.84,0-1.34-.32,0-.9.08-1.72.19a9.56,9.56,0,0,0-2.06.5,3.08,3.08,0,0,0-1.11.7,1.53,1.53,0,0,0-.49,1.16,1.72,1.72,0,0,0,.42,1.22A2.55,2.55,0,0,0,13.43,26.1Z"/><path d="M13.43,38.52a6.13,6.13,0,0,0,1.21.28,12.61,12.61,0,0,0,1.41.08h.54l.68,0c0-.06,0-.3,0-.74V35.37c0-.38,0-.83,0-1.34-.32,0-.9.08-1.72.2a9.56,9.56,0,0,0-2.06.5,3.08,3.08,0,0,0-1.11.7,1.53,1.53,0,0,0-.49,1.16,1.74,1.74,0,0,0,.42,1.22A2.55,2.55,0,0,0,13.43,38.52Z"/><path d="M13.43,12a5.5,5.5,0,0,0,1.21.27,10.56,10.56,0,0,0,1.41.09h.54l.68,0c0-.05,0-.29,0-.73V8.85c0-.38,0-.83,0-1.34-.32,0-.9.08-1.72.2a9,9,0,0,0-2.06.5,3.08,3.08,0,0,0-1.11.7,1.53,1.53,0,0,0-.49,1.16,1.74,1.74,0,0,0,.42,1.22A2.55,2.55,0,0,0,13.43,12Z"/><path d="M21.06,0H0C0,2.43,0,38.32,0,39.71c0,1.7,0,2.88.1,6.58,0,.78,0,1.56,0,2.34a0,0,0,0,0,0,0c0,1.45,0,5.55,0,6.13h0s0,.05.06.05c1.34.07,2.71,0,4.05,0H18.67c.7,0,2.22,0,2.25,0h0c.09,0,0-4.55.05-6.78s.06-4.48,0-6.72C21,40.12,21,39.2,21,38,21,36.26,21.06,1,21.06,0ZM10.76,8.33a4.66,4.66,0,0,1,1.81-1.25,10.76,10.76,0,0,1,1.94-.54,26.15,26.15,0,0,1,2.76-.37,3,3,0,0,0-.43-1.43,2.3,2.3,0,0,0-1.08-.84,4.54,4.54,0,0,0-1.1-.29,11.39,11.39,0,0,0-1.4-.08l-.86,0-1,.06.18-1.49.66,0c.33,0,.78,0,1.36,0A9.21,9.21,0,0,1,16,2.33a4,4,0,0,1,1.72.89,3.69,3.69,0,0,1,1,1.43A7.45,7.45,0,0,1,19,7.12c0,1.85,0,3.35,0,4.51s0,1.79,0,1.88l-1,.08c-.62.05-1.41.07-2.39.07a10.48,10.48,0,0,1-1.84-.16A7.14,7.14,0,0,1,12.11,13a3.92,3.92,0,0,1-1.45-1.13,2.72,2.72,0,0,1-.55-1.72A2.74,2.74,0,0,1,10.76,8.33Zm0,14.11a4.58,4.58,0,0,1,1.81-1.26,10.76,10.76,0,0,1,1.94-.54,23.9,23.9,0,0,1,2.76-.36,3,3,0,0,0-.43-1.43A2.32,2.32,0,0,0,15.76,18a4.54,4.54,0,0,0-1.1-.28,9.59,9.59,0,0,0-1.4-.09l-.86,0-1,.06.18-1.48c.11,0,.33,0,.66,0s.78,0,1.36,0a9.23,9.23,0,0,1,2.34.27,4,4,0,0,1,1.72.89,3.76,3.76,0,0,1,1,1.43A7.52,7.52,0,0,1,19,21.23c0,1.84,0,3.34,0,4.51s0,1.78,0,1.87l-1,.08c-.62,0-1.41.08-2.39.08a10.5,10.5,0,0,1-1.84-.17,6.23,6.23,0,0,1-1.59-.48A3.82,3.82,0,0,1,10.66,26a2.93,2.93,0,0,1,.1-3.55Zm0,12.42a4.58,4.58,0,0,1,1.81-1.26,10.76,10.76,0,0,1,1.94-.54,23.9,23.9,0,0,1,2.76-.36,3,3,0,0,0-.43-1.43,2.26,2.26,0,0,0-1.08-.85,4.54,4.54,0,0,0-1.1-.29,11.39,11.39,0,0,0-1.4-.08l-.86,0-1,.06.18-1.49.66,0,1.36,0a9.23,9.23,0,0,1,2.34.27,4,4,0,0,1,1.72.89,3.69,3.69,0,0,1,1,1.43A7.49,7.49,0,0,1,19,33.64c0,1.85,0,3.35,0,4.51s0,1.79,0,1.88l-1,.08c-.62,0-1.41.08-2.39.08A10.5,10.5,0,0,1,13.7,40a6.23,6.23,0,0,1-1.59-.48,3.82,3.82,0,0,1-1.45-1.13,2.93,2.93,0,0,1,.1-3.55ZM7.21,9.64a2.78,2.78,0,0,0-.89-.76c-.26-.16-.61-.33-1-.53a12,12,0,0,1-1.14-.61A3.36,3.36,0,0,1,2.92,6.59a2.59,2.59,0,0,1-.37-1.38,2.65,2.65,0,0,1,.33-1.35,3.55,3.55,0,0,1,.87-1,3.8,3.8,0,0,1,1.33-.61,7.17,7.17,0,0,1,1.74-.2l1.06,0,.62,0,.11,1.22L8,3.31a12.51,12.51,0,0,0-1.34-.06,4.82,4.82,0,0,0-1,.11,2.87,2.87,0,0,0-.88.33,1.75,1.75,0,0,0-.58.54A1.45,1.45,0,0,0,4,5a1.42,1.42,0,0,0,.25.8,2.64,2.64,0,0,0,.93.79c.23.14.54.3.92.49s.75.38,1.12.59A3.87,3.87,0,0,1,8.48,8.86a2.57,2.57,0,0,1,.43,1.48,2.81,2.81,0,0,1-.41,1.52,3.17,3.17,0,0,1-1.11,1.07,5.41,5.41,0,0,1-1.45.56,8,8,0,0,1-1.82.19c-.37,0-.74,0-1.13,0l-.67,0-.07-1.22c.08,0,.3,0,.66.07s.79,0,1.28,0a8.48,8.48,0,0,0,1.16-.11,3.91,3.91,0,0,0,1.09-.31,2.16,2.16,0,0,0,.77-.59,1.46,1.46,0,0,0,.26-.88A1.72,1.72,0,0,0,7.21,9.64ZM2.1,18.14c0-1.07,0-2.29,0-3.68H3.51l0,5.17h0a12.81,12.81,0,0,1,2.13-1A4.42,4.42,0,0,1,7,18.35a2.46,2.46,0,0,1,1.87.73,2.78,2.78,0,0,1,.71,2c0,.77,0,1.43,0,2s0,1,0,1.35c0,.55,0,1.18,0,1.9s0,1.21,0,1.47H8.18c0-.18,0-.73,0-1.64s0-1.51,0-1.8v-1.4c0-.61,0-1.06,0-1.35a2.59,2.59,0,0,0-.4-1.5,1.6,1.6,0,0,0-1.29-.45A3.82,3.82,0,0,0,5.18,20a12.19,12.19,0,0,0-1.71.84l0,7H2.07c0-.23,0-1.19,0-2.86s0-3,0-4.12C2.11,20.1,2.1,19.21,2.1,18.14Zm0,10.51.84,0H4.32a13.41,13.41,0,0,1,1.43.08,5,5,0,0,1,1.35.37,2.92,2.92,0,0,1,1.32,1,2.7,2.7,0,0,1,.49,1.62,2.83,2.83,0,0,1-.73,2,6.72,6.72,0,0,1-1.4,1.19v0c.77.9,1.62,1.83,2.54,2.79l1.49,1.55-1.06.87c-.13-.12-.57-.61-1.32-1.46s-1.92-2.18-3.49-4v-.08a4.28,4.28,0,0,0,.85-.36,4.58,4.58,0,0,0,.9-.62A2.61,2.61,0,0,0,7.24,33a2.28,2.28,0,0,0,.24-1.13,1.87,1.87,0,0,0-.35-1.13A2,2,0,0,0,6.19,30a3.57,3.57,0,0,0-1-.22c-.36,0-.7,0-1,0h-.7c0,1.07,0,2,0,2.84s0,1.39,0,1.73c0,.78,0,1.83,0,3.15s0,2.16,0,2.5H2.07c0-.34,0-1,0-2s0-2.18,0-3.63V32.81C2.11,32.05,2.1,30.66,2.07,28.65Zm.47,26c-.73,0-1.46,0-2.19,0,0-2.74,0-5.62-.09-8.34a20.8,20.8,0,0,0,2.08-.29c.69-.12,1.37-.27,2.05-.44a22.2,22.2,0,0,0,3.88-1.39c1.38-.65,2.72-1.67,4.29-1.34a4.61,4.61,0,0,1,.53.15,1.6,1.6,0,0,0-1.38.64A4.6,4.6,0,0,0,11.07,45c-.2.55-.38,1.12-.6,1.66a4.56,4.56,0,0,1-.92,1.43,7,7,0,0,1-1.39,1,12.72,12.72,0,0,0-2.68,2.25A15.72,15.72,0,0,0,4.17,53a9.48,9.48,0,0,0-1,1.68Zm18.21-2.09c0,.71,0,1.34,0,2-.65.05-1.21.05-1.81.05H3.33c.28-.46.54-.93.83-1.38a14.77,14.77,0,0,1,1.13-1.45,12.5,12.5,0,0,1,2.59-2.35c.46-.28.93-.54,1.37-.87a4,4,0,0,0,1-1.19c.54-1,.75-2.08,1.2-3.08a2.05,2.05,0,0,1,.92-1.06,2,2,0,0,1,1-.13A17.55,17.55,0,0,1,16.07,45,6.07,6.07,0,0,0,18.29,46c.82.2,1.68.24,2.5.47C20.78,48.5,20.76,50.54,20.75,52.57Z"/></g></g></svg>